<?xml version="1.0" encoding="utf-8"?>
<!-- Generator: Adobe Illustrator 25.2.1, SVG Export Plug-In . SVG Version: 6.00 Build 0)  -->
<svg version="1.1" id="Layer_1" xmlns="http://www.w3.org/2000/svg" xmlns:xlink="http://www.w3.org/1999/xlink" x="0px" y="0px"
	 viewBox="0 0 682.5 332.3" style="enable-background:new 0 0 682.5 332.3;" xml:space="preserve">
<style type="text/css">
	.st0{fill:#231F20;}
	.st1{fill:none;stroke:#7895A4;stroke-width:3;stroke-linecap:round;stroke-miterlimit:10;}
	.st2{fill:none;stroke:#6E2405;stroke-width:6;stroke-linecap:round;stroke-miterlimit:10;}
	.st3{fill:none;stroke:#C6CDC7;stroke-width:4;stroke-linecap:round;stroke-miterlimit:10;}
	.st4{fill:none;}
	.st5{font-family:'ArialMT';}
	.st6{font-size:12.3619px;}
	.st7{font-family:'AlexaStd';}
	.st8{font-size:74.4142px;}
	.st9{font-size:74.6432px;}
	.st10{font-size:74.7639px;}
	.st11{font-size:74.8071px;}
	.st12{font-size:74.7227px;}
	.st13{font-size:12px;}
</style>
<g>
	<path class="st0" d="M130.9,88.9c0,0,0.9,0,2.5,0.2s4,0.6,6.9,1.3c5.9,1.4,14.2,4.2,23.3,9.3c4.6,2.5,9.3,5.6,14.1,9.2
		s9.5,7.8,14.1,12.4c4.6,4.7,9,9.8,13.1,15.3s7.9,11.3,11.4,17.3l2.6,4.5c0.8,1.5,1.6,3.1,2.4,4.6l1.2,2.3l1.1,2.3
		c0.7,1.6,1.5,3.1,2.2,4.6c2.9,6.1,5.5,12.3,8.5,17.9c1.4,2.9,2.8,5.7,4.2,8.5c1.4,2.7,2.8,5.5,4.2,8c1.4,2.6,2.8,5.1,4.2,7.5
		s2.8,4.7,4.1,6.9c1.4,2.1,2.7,4.2,4,6.1c1.4,1.9,2.6,3.8,3.9,5.4c1.3,1.6,2.5,3.2,3.7,4.5c0.6,0.7,1.1,1.3,1.7,1.9
		c0.6,0.6,1.1,1.1,1.7,1.7c2.1,2.1,4,3.6,5.4,4.4c0.3,0.2,0.6,0.4,0.9,0.5s0.5,0.3,0.7,0.3c0.4,0.2,0.6,0.2,0.6,0.2s-0.2,0-0.6-0.2
		c-0.2,0-0.4-0.2-0.7-0.3c-0.3-0.1-0.6-0.2-1-0.4c-1.5-0.7-3.5-2-5.8-4c-0.6-0.5-1.2-1-1.8-1.6c-0.6-0.6-1.2-1.2-1.9-1.8
		c-1.3-1.3-2.6-2.8-4-4.3c-1.4-1.6-2.8-3.4-4.3-5.2c-1.4-1.9-2.9-3.9-4.4-6c-1.4-2.2-2.9-4.4-4.5-6.7c-1.5-2.4-3-4.9-4.5-7.4
		c-3-5.1-6.1-10.6-9-16.4c-1.5-2.9-3-5.8-4.4-8.8c-1.5-3-2.9-6-4.4-9.1c-0.7-1.5-1.5-3-2.2-4.6l-1.1-2.3l-1.2-2.2
		c-0.8-1.5-1.6-3-2.4-4.5l-2.5-4.4c-3.4-5.9-7.1-11.7-11.1-17c-4-5.4-8.1-10.5-12.5-15.1s-8.9-8.8-13.4-12.5s-9.1-6.9-13.4-9.6
		c-8.7-5.4-16.7-8.7-22.4-10.5c-2.9-0.9-5.1-1.5-6.7-1.8C131.7,89,130.9,88.9,130.9,88.9z"/>
</g>
<g>
	<path class="st0" d="M248.2,76.9c0,0,0.9,0,2.6,0.2c1.7,0.2,4.1,0.6,7.2,1.5c0.8,0.2,1.6,0.5,2.4,0.7c0.8,0.3,1.7,0.5,2.6,0.9
		s1.8,0.7,2.8,1.1c0.5,0.2,1,0.4,1.5,0.6s1,0.5,1.5,0.7c1,0.5,2,1,3.1,1.5s2.1,1.2,3.2,1.8c1.1,0.6,2.2,1.2,3.3,2
		c1.1,0.8,2.2,1.5,3.3,2.3c0.6,0.4,1.1,0.8,1.7,1.2c0.6,0.4,1.1,0.9,1.7,1.3c1.1,0.9,2.2,1.8,3.4,2.8c1.2,0.9,2.2,2,3.3,3
		c1.1,1.1,2.2,2.1,3.3,3.2c0.3,0.3,0.6,0.5,0.8,0.8l0.8,0.9c0.5,0.6,1.1,1.2,1.6,1.8c1.1,1.2,2.2,2.4,3.3,3.6
		c1.1,1.2,2.1,2.6,3.1,3.9s2.1,2.7,3.1,4c0.5,0.7,1,1.4,1.5,2.1s1,1.4,1.4,2.2c1,1.5,1.9,2.9,2.9,4.4c1,1.4,1.9,3,2.7,4.5
		c0.9,1.6,1.7,3.1,2.6,4.7c1.8,3.1,3.4,6.3,5,9.5s3.2,6.5,4.8,9.7c3.1,6.5,6.1,13.1,9.1,19.5s5.9,12.8,9,18.8c3,6,6,11.8,9.1,17.1
		s6.2,10.2,9.4,14.5c3.2,4.3,6.4,8,9.6,11c3.1,3,6.1,5.4,8.7,7.1c2.6,1.7,4.8,2.9,6.3,3.6c1.5,0.7,2.4,1.1,2.4,1.1s-0.8-0.3-2.4-0.9
		c-1.6-0.6-3.9-1.6-6.7-3.2c-2.7-1.6-6-3.8-9.3-6.7c-3.4-2.9-6.9-6.5-10.3-10.8c-3.5-4.2-6.9-9.1-10.2-14.4
		c-3.3-5.3-6.6-11-9.7-17.1c-3.1-6-6.3-12.3-9.3-18.7c-3.1-6.4-6.2-12.9-9.3-19.4c-1.5-3.2-3.1-6.5-4.7-9.7s-3.2-6.4-4.9-9.5
		c-0.8-1.5-1.7-3.1-2.5-4.6s-1.6-3.1-2.6-4.5c-0.9-1.5-1.8-2.9-2.7-4.3c-0.5-0.7-0.9-1.4-1.4-2.1c-0.4-0.7-0.9-1.4-1.4-2.1
		c-2-2.7-3.9-5.4-5.9-7.9c-1-1.2-2.1-2.4-3.1-3.7c-0.5-0.6-1-1.2-1.5-1.8l-0.7-0.9c-0.3-0.3-0.5-0.6-0.8-0.8
		c-1.1-1.1-2.1-2.2-3.2-3.2c-1-1.1-2-2.1-3.1-3.1s-2.1-1.9-3.2-2.8c-0.5-0.5-1-0.9-1.6-1.4c-0.5-0.4-1.1-0.8-1.6-1.2
		c-1.1-0.8-2.1-1.6-3.1-2.4s-2.1-1.4-3.1-2.1s-2-1.4-3-2s-2-1.1-2.9-1.7c-0.5-0.3-0.9-0.5-1.4-0.8c-0.5-0.2-0.9-0.5-1.4-0.7
		c-0.9-0.4-1.8-0.9-2.7-1.3c-0.8-0.4-1.7-0.7-2.5-1s-1.6-0.7-2.3-0.9c-3-1-5.4-1.7-7-2C249.1,77,248.2,76.9,248.2,76.9z"/>
</g>
<g>
	<path class="st0" d="M394.9,120.9c0,0,0.6,0.3,1.6,0.9s2.5,1.6,4.3,3c0.9,0.7,1.8,1.5,2.9,2.3c1,0.9,2.1,1.9,3.3,3
		c2.3,2.2,4.8,4.7,7.2,7.7c1.2,1.5,2.6,3,3.8,4.7c0.6,0.8,1.3,1.7,1.9,2.5c0.6,0.9,1.2,1.8,1.9,2.7c0.6,0.9,1.3,1.8,1.9,2.8
		s1.2,1.9,1.8,2.9c0.6,1,1.2,2,1.8,3c0.6,1,1.1,2.1,1.7,3.2c0.6,1.1,1.2,2.1,1.7,3.2c0.6,1.1,1.1,2.2,1.6,3.3
		c1.1,2.2,2.2,4.5,3.2,6.9c1,2.3,2,4.7,2.9,7.1c1,2.4,1.9,4.7,2.9,7.1c1,2.3,1.9,4.7,2.9,7s2,4.6,3.1,6.9c2.1,4.5,4.2,9,6.5,13.1
		s4.8,8,7.3,11.5c0.7,0.9,1.3,1.7,2,2.5c0.6,0.8,1.4,1.6,2,2.4c1.3,1.6,2.7,3,4,4.3s2.7,2.5,4,3.7c1.3,1.1,2.6,2.2,3.7,3.2
		c1.2,1,2.4,1.9,3.4,2.7c1.1,0.8,2.1,1.6,3,2.2c1.8,1.4,3.2,2.4,4.2,3.1c1,0.7,1.5,1.1,1.5,1.1s-0.6-0.3-1.6-0.9
		c-1-0.6-2.6-1.4-4.5-2.6c-1-0.6-2-1.2-3.2-1.9c-1.1-0.7-2.4-1.6-3.7-2.4c-1.3-0.9-2.6-1.9-4.1-2.9c-1.4-1.1-2.8-2.3-4.3-3.5
		c-2.9-2.6-5.9-5.6-8.7-9.1c-2.8-3.5-5.6-7.3-8-11.5c-2.5-4.2-4.8-8.6-7-13.2c-1.1-2.3-2.1-4.6-3.2-7c-1-2.4-2-4.7-3-7.1
		c-0.9-2.4-1.9-4.8-2.8-7.1c-0.9-2.4-1.9-4.7-2.8-7s-2-4.5-3-6.8c-0.5-1.1-1-2.2-1.5-3.3s-1.1-2.1-1.6-3.2c-0.5-1.1-1.1-2.1-1.6-3.1
		c-0.6-1-1.1-2-1.7-3s-1.1-2-1.7-3c-0.6-0.9-1.2-1.9-1.7-2.8c-0.6-0.9-1.1-1.8-1.7-2.7s-1.2-1.7-1.7-2.6c-1.1-1.7-2.3-3.3-3.4-4.8
		c-2.3-3.1-4.5-5.7-6.5-8.1c-1-1.1-2-2.2-3-3.2c-1-0.9-1.8-1.8-2.6-2.6c-1.6-1.5-2.9-2.7-3.9-3.4
		C395.4,121.3,394.9,120.9,394.9,120.9z"/>
</g>
<g>
	<path class="st0" d="M134.9,235.6c0,0,1-0.4,2.7-1.1c1.8-0.7,4.3-2,7.4-3.6c1.6-0.8,3.3-1.8,5.2-2.8c1.9-1.1,3.9-2.2,6-3.5
		c1-0.7,2.1-1.3,3.2-2c0.6-0.3,1.1-0.7,1.7-1.1c0.6-0.4,1.1-0.8,1.7-1.1c2.3-1.5,4.7-3.1,7.2-4.9c1.2-0.9,2.5-1.8,3.8-2.7
		c1.3-1,2.5-1.9,3.8-2.9s2.6-2,3.9-3c1.3-1.1,2.6-2.2,4-3.3c5.4-4.4,10.8-9.3,16.2-14.6c0.7-0.7,1.4-1.3,2.1-2
		c0.7-0.7,1.3-1.4,2-2.1c1.3-1.4,2.7-2.8,4-4.2c1.4-1.4,2.7-2.8,4-4.3s2.6-2.9,4-4.4c5.4-6,10.7-12,16.7-17.8l2.2-2.2
		c0.7-0.7,1.5-1.4,2.2-2.1c1.5-1.4,3.1-2.7,4.6-4.1c1.5-1.3,3-2.7,4.6-4s3.2-2.5,4.7-3.8c1.6-1.2,3.1-2.6,4.7-3.7
		c1.6-1.2,3.2-2.3,4.8-3.5c1.6-1.1,3.2-2.3,4.8-3.4c1.6-1.1,3.3-2.1,4.9-3.1c3.2-2.1,6.5-4,9.7-5.8c0.8-0.5,1.6-0.9,2.4-1.4
		c0.8-0.4,1.6-0.8,2.4-1.2c1.6-0.8,3.2-1.6,4.8-2.4c0.8-0.4,1.6-0.8,2.3-1.2c0.8-0.4,1.6-0.7,2.4-1c1.6-0.7,3.1-1.4,4.6-2
		c1.5-0.7,3.1-1.2,4.5-1.8c1.5-0.6,3-1.1,4.4-1.7c2.9-1,5.7-1.9,8.4-2.7c2.7-0.7,5.3-1.3,7.7-1.9c2.4-0.5,4.7-0.9,6.8-1.3
		c2.1-0.3,4.1-0.6,5.9-0.8c3.6-0.3,6.4-0.5,8.3-0.4c1.9,0,2.9,0.1,2.9,0.1s-1,0.1-2.9,0.2c-1.9,0-4.7,0.5-8.2,0.9
		c-1.7,0.3-3.7,0.7-5.8,1.1c-2.1,0.5-4.3,1.1-6.7,1.7c-2.3,0.7-4.8,1.5-7.5,2.3c-2.6,1-5.3,1.9-8.1,3c-1.4,0.6-2.8,1.2-4.3,1.8
		c-1.4,0.6-2.9,1.2-4.4,1.9c-1.5,0.7-3,1.4-4.5,2.2c-0.8,0.4-1.5,0.7-2.3,1.1s-1.5,0.8-2.3,1.2c-1.5,0.8-3.1,1.7-4.6,2.5
		c-0.8,0.4-1.6,0.8-2.3,1.3c-0.8,0.5-1.5,0.9-2.3,1.4c-3.1,1.9-6.3,3.7-9.4,5.9c-1.6,1-3.2,2.1-4.7,3.2c-1.6,1-3.1,2.3-4.7,3.4
		c-1.6,1.2-3.1,2.3-4.7,3.5s-3.1,2.5-4.6,3.7c-1.5,1.3-3.1,2.5-4.6,3.8s-3,2.7-4.5,4s-3,2.7-4.5,4s-2.9,2.8-4.3,4.2
		c-5.8,5.5-11.2,11.7-16.6,17.5c-1.4,1.5-2.7,3-4.1,4.4c-1.4,1.5-2.7,2.9-4.1,4.3c-1.4,1.4-2.8,2.8-4.2,4.1
		c-0.7,0.7-1.4,1.4-2.1,2.1c-0.7,0.7-1.4,1.3-2.1,2c-5.6,5.2-11.2,10.1-16.8,14.4c-1.4,1.1-2.8,2.1-4.1,3.2c-1.3,1-2.7,2-4.1,2.9
		c-1.4,1-2.7,1.9-4,2.8c-1.3,0.9-2.6,1.7-3.9,2.6c-5.1,3.4-10,6.1-14.4,8.5c-2.2,1.2-4.3,2.2-6.2,3.2c-2,0.9-3.7,1.8-5.4,2.5
		c-1.6,0.7-3.1,1.4-4.4,1.8c-1.3,0.5-2.4,0.9-3.3,1.2C135.9,235.3,134.9,235.6,134.9,235.6z"/>
</g>
<g>
	<path class="st0" d="M246.9,247.6c0,0,3-1.8,8-5.2c1.3-0.8,2.7-1.8,4.2-2.8s3.1-2.2,4.9-3.4c0.9-0.6,1.8-1.2,2.7-1.9
		c0.9-0.7,1.8-1.3,2.8-2c1.9-1.4,3.9-2.9,6-4.4s4.2-3.2,6.4-4.9c2.2-1.7,4.6-3.4,6.8-5.3c4.6-3.8,9.5-7.7,14.3-12.1
		c2.4-2.2,4.9-4.3,7.4-6.6c2.4-2.3,5-4.6,7.6-6.8c5.2-4.5,10.6-9,16.1-13.2c5.6-4.2,11.3-8.2,17.1-11.9c5.8-3.7,11.8-7,17.7-9.9
		c5.9-2.9,11.8-5.2,17.6-7.1c5.8-1.9,11.3-3.1,16.6-3.9c5.2-0.8,10.1-1,14.3-0.8c2.1,0.1,4.1,0.2,6,0.4c0.9,0.1,1.8,0.2,2.6,0.3
		c0.8,0.1,1.6,0.3,2.4,0.4c1.5,0.2,2.8,0.6,4,0.9c1.2,0.3,2.1,0.5,2.9,0.8c1.6,0.5,2.4,0.7,2.4,0.7s-0.9-0.2-2.4-0.5
		c-0.8-0.2-1.8-0.4-2.9-0.5c-1.2-0.2-2.5-0.4-4-0.5c-0.8-0.1-1.5-0.2-2.4-0.2c-0.8-0.1-1.7-0.1-2.6-0.1c-1.8-0.1-3.8-0.1-5.9-0.1
		c-4.2,0.1-8.9,0.6-14,1.6s-10.4,2.4-16,4.4s-11.2,4.5-17,7.4c-5.7,2.9-11.5,6.3-17.2,10s-11.3,7.7-16.8,11.9s-10.9,8.5-16,12.9
		c-2.6,2.2-5.1,4.4-7.6,6.7c-2.5,2.2-5.1,4.4-7.6,6.5c-1.2,1.1-2.5,2.1-3.7,3.2c-0.6,0.5-1.2,1.1-1.8,1.5c-0.6,0.5-1.3,1-1.9,1.4
		c-2.5,1.9-4.9,3.8-7.3,5.6c-1.2,0.9-2.4,1.8-3.6,2.6s-2.4,1.7-3.5,2.5c-2.3,1.6-4.5,3.2-6.7,4.6c-4.4,2.8-8.3,5.5-12,7.7
		c-1.8,1.1-3.5,2.1-5.1,3.1c-1.6,0.9-3.1,1.7-4.4,2.5c-2.6,1.5-4.8,2.6-6.2,3.4C247.7,247.2,246.9,247.6,246.9,247.6z"/>
</g>
<g>
	<path class="st0" d="M376.2,246.6c0,0,0.1,0,0.4-0.1s0.6-0.2,1.1-0.4s1.1-0.4,1.8-0.7c0.7-0.3,1.5-0.6,2.3-1
		c1.8-0.7,3.8-1.8,6.1-2.9c1.2-0.5,2.4-1.3,3.7-2c1.3-0.7,2.6-1.5,4-2.3s2.7-1.8,4.2-2.7c1.4-0.9,3-1.8,4.5-2.9
		c1.5-1.1,3-2.2,4.5-3.3c1.5-1.2,3.2-2.2,4.7-3.5c3.1-2.5,6.2-5.1,9.5-7.7c1.6-1.3,3.2-2.7,4.9-4c1.7-1.3,3.4-2.6,5.1-4
		c1.7-1.3,3.6-2.5,5.3-3.7c1.8-1.2,3.6-2.3,5.4-3.5s3.7-2.2,5.6-3.2s3.8-1.9,5.6-2.8c1.9-0.8,3.8-1.7,5.6-2.4
		c1.9-0.7,3.7-1.4,5.6-1.9c3.7-1.1,7.3-2,10.6-2.4c0.8-0.1,1.7-0.2,2.5-0.3c0.8,0,1.6-0.1,2.4-0.1s1.5-0.1,2.3-0.1
		c0.7,0,1.4,0,2.1,0.1c0.7,0,1.4,0,2,0.1s1.3,0.2,1.8,0.2c0.6,0.1,1.1,0.1,1.7,0.2c0.5,0.1,1,0.2,1.5,0.3c1,0.2,1.8,0.4,2.5,0.6
		c0.7,0.2,1.3,0.4,1.8,0.6c1,0.3,1.5,0.5,1.5,0.5s-0.5-0.1-1.6-0.3c-0.5-0.1-1.1-0.2-1.9-0.3c-0.7-0.1-1.6-0.2-2.5-0.3
		c-0.5,0-1-0.1-1.5-0.1s-1.1,0-1.7,0s-1.2,0-1.8,0c-0.6,0-1.3,0.1-1.9,0.1c-0.7,0-1.3,0.1-2,0.1s-1.4,0.2-2.1,0.3s-1.5,0.2-2.2,0.3
		c-0.8,0.2-1.5,0.3-2.3,0.5s-1.6,0.3-2.4,0.6c-0.8,0.2-1.6,0.5-2.5,0.7c-1.7,0.4-3.3,1.1-5.1,1.7c-1.7,0.6-3.4,1.4-5.2,2.1
		c-1.7,0.8-3.5,1.7-5.3,2.5c-1.7,1-3.6,1.9-5.3,2.9c-0.9,0.5-1.8,1.1-2.6,1.6c-0.9,0.5-1.8,1-2.7,1.6c-1.7,1.2-3.5,2.2-5.2,3.5
		c-1.7,1.2-3.5,2.4-5.1,3.7c-1.7,1.3-3.4,2.5-5,3.8s-3.3,2.7-4.9,4c-3.3,2.6-6.7,5.1-9.9,7.6c-3.3,2.4-6.7,4.4-9.8,6.5
		c-3.2,1.9-6.4,3.6-9.3,5.1c-1.5,0.7-2.9,1.3-4.3,2c-1.4,0.6-2.7,1.2-3.9,1.7c-2.5,1-4.7,1.8-6.6,2.3c-0.9,0.3-1.7,0.5-2.5,0.7
		c-0.7,0.2-1.4,0.3-1.9,0.4c-0.5,0.1-0.9,0.2-1.2,0.2C376.4,246.5,376.2,246.6,376.2,246.6z"/>
</g>
<g>
	<line class="st1" x1="217.6" y1="168.9" x2="227.2" y2="170"/>
	<line class="st1" x1="223" y1="164.6" x2="221.7" y2="174.2"/>
</g>
<g>
	<line class="st2" x1="296.1" y1="110.1" x2="305.7" y2="111.3"/>
	<line class="st2" x1="301.5" y1="105.9" x2="300.2" y2="115.5"/>
</g>
<g>
	<line class="st3" x1="332.9" y1="177.1" x2="342.3" y2="179.3"/>
	<line class="st3" x1="338.8" y1="173.5" x2="336.5" y2="182.9"/>
</g>
<g>
	<line class="st3" x1="414.4" y1="144.6" x2="423.4" y2="148.3"/>
	<line class="st3" x1="420.8" y1="142" x2="417" y2="150.9"/>
</g>
<g>
	<line class="st2" x1="440.4" y1="199.1" x2="449.4" y2="202.8"/>
	<line class="st2" x1="446.8" y1="196.5" x2="443" y2="205.4"/>
</g>
<g>
	<line class="st2" x1="379.6" y1="242.1" x2="388.6" y2="245.8"/>
	<line class="st2" x1="386" y1="239.5" x2="382.2" y2="248.4"/>
</g>
<g>
	<line class="st1" x1="263.2" y1="233.1" x2="259.7" y2="242.1"/>
	<line class="st1" x1="265.9" y1="239.4" x2="257" y2="235.8"/>
</g>
<g>
	<line class="st3" x1="140" y1="229.8" x2="148.9" y2="233.4"/>
	<line class="st3" x1="146.4" y1="227.1" x2="142.5" y2="236.1"/>
</g>
<g>
	<line class="st2" x1="133.3" y1="89.8" x2="142.9" y2="88.7"/>
	<line class="st2" x1="137.6" y1="84.4" x2="138.5" y2="94.1"/>
</g>
<g>
	<path class="st0" d="M123.5,94.6c-2.8,0.4-5.6,1-8.4,1.6s-5.6,1.3-8.3,2c-2.8,0.7-5.5,1.5-8.2,2.4l-4.1,1.3l-4,1.4l-4,1.5l-4,1.5
		c-2.6,1.1-5.3,2.1-7.8,3.3c-1.3,0.6-2.6,1.2-3.9,1.8c-1.3,0.6-2.6,1.2-3.8,1.8c-2.6,1.2-5.1,2.6-7.6,3.9c-2.5,1.4-5,2.7-7.4,4.2
		c-2.4,1.4-4.8,3-7.2,4.5c-1.2,0.8-2.3,1.6-3.5,2.4l-1.7,1.2l-1.7,1.3l-3.4,2.5l-3.3,2.6c-1.1,0.9-2.2,1.8-3.2,2.7
		c-1.1,0.9-2.1,1.8-3.2,2.8c-2.1,1.9-4.2,3.8-6.1,5.8c-1,1-2,2-3,3l-2.9,3.1c-1,1-1.9,2.1-2.8,3.2l-2.7,3.2l0.5-2.2l0.1,0.4l0.2,0.5
		l0.4,1l0.9,2c0.6,1.3,1.4,2.6,2.1,3.9l2.4,3.7l2.6,3.6c0.8,1.2,1.9,2.3,2.8,3.4l1.5,1.7c0.5,0.6,1,1.1,1.5,1.6l3.2,3.2l1.6,1.6
		c0.5,0.5,1.1,1,1.7,1.5l3.4,2.9l1.7,1.5c0.6,0.5,1.2,0.9,1.8,1.4l3.6,2.7l1.8,1.3c0.6,0.5,1.2,0.9,1.8,1.3l7.6,4.9
		c1.2,0.8,2.6,1.5,3.9,2.3l4,2.2l4,2.2c1.3,0.7,2.7,1.3,4.1,2l8.2,3.9c1.4,0.7,2.8,1.2,4.2,1.8l4.2,1.7c2.8,1.1,5.6,2.3,8.5,3.4
		l8.6,2.9l4.3,1.5c1.4,0.5,2.9,1,4.3,1.4l8.8,2.5l8.8,2.6l-9-1.9l-9-1.9c-1.5-0.3-3-0.8-4.4-1.2l-4.4-1.2l-8.9-2.5
		c-2.9-0.9-5.8-2-8.7-3l-4.3-1.5c-1.4-0.5-2.9-1-4.3-1.6l-8.5-3.6c-1.4-0.6-2.8-1.2-4.2-1.9l-4.1-2.1l-4.1-2.1
		c-1.4-0.7-2.8-1.4-4.1-2.2l-7.9-4.8c-0.7-0.4-1.3-0.8-1.9-1.3l-1.9-1.3l-3.8-2.7c-0.6-0.5-1.3-0.9-1.9-1.4l-1.8-1.5l-3.6-3
		c-0.6-0.5-1.2-1-1.8-1.5l-1.7-1.6l-3.3-3.3c-0.6-0.5-1.1-1.1-1.6-1.7l-1.6-1.8c-1-1.2-2.1-2.3-3-3.6l-2.8-3.8l-2.6-4
		c-0.8-1.4-1.6-2.8-2.3-4.2l-1-2.2L3.7,160l-0.2-0.6l-0.2-0.7l-0.4-1.2l0.8-1l2.8-3.3c0.9-1.1,1.9-2.2,2.9-3.3l3-3.2
		c1-1,2.1-2,3.1-3.1c2-2.1,4.2-4,6.4-5.9c1.1-1,2.2-1.9,3.3-2.8c1.1-0.9,2.2-1.9,3.4-2.7l3.4-2.6l3.5-2.5l1.8-1.3l1.8-1.2
		c1.2-0.8,2.4-1.6,3.6-2.4c2.5-1.5,4.9-3,7.4-4.4s5.1-2.7,7.6-4.1c2.6-1.3,5.2-2.5,7.8-3.7c1.3-0.6,2.6-1.2,4-1.7
		c1.3-0.6,2.7-1.1,4-1.6c2.7-1.1,5.4-2,8.1-3l4.1-1.4l4.1-1.3l4.2-1l4.2-1.1c2.8-0.7,5.6-1.3,8.4-1.9
		C112.2,95.9,117.8,95,123.5,94.6z"/>
</g>
<g>
	<path class="st0" d="M40.9,185.9c0,0,0.5,0.3,1.5,1c1,0.6,2.4,1.5,4.3,2.5c3.7,2.1,9.1,5,15.9,7.8c3.4,1.4,7.1,2.7,11.1,3.8
		s8.2,2,12.7,2.5c4.4,0.5,9,0.4,13.6-0.2c4.5-0.7,9-2.1,13.1-4.2l1.5-0.8c0.5-0.3,1.1-0.6,1.6-0.9c0.9-0.6,1.9-1.2,2.8-1.9
		s1.8-1.4,2.6-2.2c0.4-0.4,0.8-0.8,1.2-1.2l1.1-1.2c1.4-1.7,2.7-3.5,3.7-5.5c0.5-0.9,0.9-2,1.3-3c0.2-0.5,0.3-1,0.5-1.5l0.2-0.8
		l0.2-0.8c1-4.2,1-8.4,0.4-12.4c-0.1-1-0.3-2-0.5-2.9c-0.3-1-0.4-1.9-0.7-2.8c-0.3-0.9-0.5-1.8-0.9-2.7c-0.3-0.9-0.6-1.7-1-2.6
		c-1.4-3.3-3-6.2-4.6-8.7c-1.6-2.4-3.3-4.4-4.8-6c-0.7-0.8-1.4-1.4-2-2c-0.6-0.5-1.2-1-1.6-1.3c-0.9-0.7-1.4-1-1.4-1
		s0.6,0.3,1.6,0.8c1,0.6,2.5,1.4,4.2,2.8c3.4,2.7,7.8,7.4,11.3,14.1c1.7,3.4,3.3,7.2,4.2,11.6c0.4,2.2,0.7,4.4,0.8,6.8
		c0,2.3-0.1,4.8-0.6,7.2l-0.2,0.9l-0.2,0.9c-0.2,0.6-0.3,1.2-0.5,1.8c-0.4,1.2-0.8,2.4-1.4,3.5c-0.5,1.2-1.2,2.3-1.8,3.4
		c-0.3,0.6-0.7,1.1-1.1,1.6c-0.4,0.5-0.8,1.1-1.2,1.5l-1.3,1.5c-0.4,0.5-0.9,0.9-1.4,1.4c-0.9,0.9-2,1.7-3,2.6
		c-1,0.8-2.2,1.5-3.3,2.3c-0.5,0.3-1.1,0.6-1.6,0.9l-0.8,0.5l-0.4,0.2l-0.2,0.1l-0.2,0.1l-0.1,0.1c-4.6,2.4-9.7,3.9-14.7,4.5
		c-5,0.7-10.1,0.5-14.8-0.2c-4.7-0.7-9.2-1.9-13.2-3.3c-4.1-1.4-7.8-3.1-11.1-4.8c-3.3-1.7-6.3-3.4-8.8-5.1
		c-2.6-1.6-4.7-3.2-6.4-4.5s-3-2.4-3.9-3.1C41.3,186.3,40.9,185.9,40.9,185.9z"/>
</g>
<g>
	<g>
		<path class="st0" d="M60.1,145.3c0,0,0.2-0.1,0.5-0.2c0.3-0.1,0.8-0.3,1.4-0.5c1.2-0.3,3.2-0.4,5.4,0.5c1.1,0.5,2.2,1.2,3.1,2.3
			c0.2,0.3,0.4,0.5,0.7,0.9c0.2,0.3,0.3,0.5,0.5,0.9c0.4,0.8,0.6,1.5,0.7,2.3s0.1,1.7,0,2.5c-0.1,0.9-0.4,1.7-0.8,2.5
			c-0.8,1.6-2.2,3-3.9,3.8l-0.6,0.3c-0.1,0.1-0.4,0.2-0.6,0.2c-0.5,0.2-1,0.3-1.4,0.3c-0.9,0.1-1.8,0.1-2.7-0.1
			c-0.9-0.2-1.7-0.5-2.5-0.9s-1.4-0.9-2-1.5c-1.2-1.2-1.9-2.7-2.2-4c-0.3-1.5-0.3-2.8,0-3.9c0.6-2.3,1.9-3.8,2.9-4.6
			c0.5-0.4,0.9-0.7,1.2-0.9C59.9,145.4,60.1,145.3,60.1,145.3z M60.1,145.3c0,0-0.2,0.1-0.5,0.3c-0.2,0.1-0.3,0.2-0.5,0.4
			c-0.2,0.1-0.4,0.3-0.7,0.5c-0.5,0.4-1,1-1.4,1.8s-0.7,1.8-0.7,2.8c0,0.5,0,1.1,0.2,1.6c0.1,0.5,0.4,1.1,0.6,1.5
			c0.6,1.1,1.4,1.9,2.3,2.5c1,0.6,2.1,0.9,3.2,0.9c0.5,0,1.1,0,1.6-0.1c0.3-0.1,0.5-0.1,0.7-0.2c0.1,0,0.2-0.1,0.4-0.1l0.3-0.1
			l0.1-0.1h0.1l0,0l0,0c0,0,0.1,0-0.1,0c0.5-0.2,0.9-0.5,1.4-0.9c0.4-0.4,0.8-0.8,1.1-1.2c0.6-0.9,1.1-2,1.2-3.1
			c0-0.5,0.1-1.2,0-1.7c0-0.2-0.1-0.6-0.2-0.9c-0.1-0.2-0.2-0.5-0.3-0.8c-0.5-1-1.2-1.9-2-2.5s-1.8-1-2.6-1.2
			c-0.9-0.2-1.7-0.1-2.3,0c-0.3,0-0.6,0.1-0.8,0.2c-0.2,0.1-0.4,0.1-0.6,0.2C60.2,145.3,60.1,145.3,60.1,145.3z"/>
	</g>
</g>
<g>
	<path class="st0" d="M154.5,86.1c0,0,1.2-0.5,3.3-1.2c1.1-0.4,2.4-0.8,3.9-1.3s3.2-1,5.1-1.5c1.9-0.5,3.9-1,6.1-1.5
		c2.2-0.5,4.5-1,6.8-1.4c2.4-0.5,4.8-0.9,7.4-1.3c2.5-0.4,5.1-0.7,7.6-1c2.6-0.2,5.1-0.6,7.7-0.7c2.5-0.2,5-0.4,7.5-0.4
		c2.4-0.1,4.8-0.1,7,0s4.3,0.1,6.3,0.3c1.9,0.1,3.7,0.3,5.3,0.5c1.6,0.1,2.9,0.4,4.1,0.6c2.2,0.4,3.5,0.6,3.5,0.6s-1.3,0.2-3.5,0.4
		c-1.1,0.1-2.5,0.2-4,0.3c-1.6,0.2-3.3,0.4-5.2,0.5c-1,0.1-1.9,0.2-3,0.3c-1,0.1-2.1,0.2-3.2,0.3c-2.2,0.2-4.5,0.5-6.9,0.7
		s-4.8,0.6-7.3,0.8c-2.5,0.3-5,0.6-7.6,0.9c-5.1,0.6-10.1,1.2-14.9,1.7c-4.8,0.5-9.2,1-13,1.4c-1.9,0.2-3.7,0.4-5.2,0.5
		c-1.6,0.2-2.9,0.3-4.1,0.4c-1.1,0.1-2,0.2-2.6,0.2C154.9,86,154.5,86.1,154.5,86.1z"/>
</g>
<g>
	<path class="st0" d="M255.5,71.1c0,0,0-1.1,0.2-3c0.1-1.9,0.4-4.5,0.9-7.7s1.2-6.8,2.1-10.7c0.5-2,1-4,1.5-6s1.2-4.1,1.8-6.1
		c0.7-2,1.4-4.1,2.1-6c0.7-2,1.5-3.9,2.3-5.7c0.8-1.8,1.6-3.6,2.4-5.3c0.9-1.6,1.7-3.2,2.5-4.6s1.6-2.6,2.3-3.7c0.7-1.1,1.4-2,2-2.8
		c1.1-1.5,1.8-2.3,1.8-2.3s-0.3,1-0.9,2.8c-0.3,0.9-0.7,1.9-1.1,3.2c-0.4,1.2-0.9,2.6-1.4,4.1c-1,3-2.1,6.5-3.4,10.2
		c-0.6,1.9-1.2,3.8-1.9,5.8c-0.6,2-1.3,4-1.9,6c-0.7,2-1.3,4-2,6s-1.3,3.9-1.9,5.8c-1.3,3.7-2.5,7.3-3.6,10.2
		c-0.5,1.5-1.1,2.9-1.5,4.1s-0.9,2.3-1.2,3.1C256,70.1,255.5,71.1,255.5,71.1z"/>
</g>
<g>
	<path class="st0" d="M275.5,13.1c0,0,0.2,0.4,0.5,1.1c0.3,0.7,0.8,1.8,1.4,3.2c1.2,2.7,3,6.6,5.2,11.2c1.1,2.3,2.4,4.7,3.8,7.3
		s2.9,5.2,4.5,7.9s3.4,5.5,5.2,8.2c1.9,2.7,3.8,5.5,5.9,8.1l1.5,2l1.6,1.9c1,1.3,2.1,2.6,3.2,3.8c0.5,0.6,1.1,1.2,1.6,1.8
		c0.6,0.6,1.1,1.2,1.7,1.8c1.1,1.2,2.3,2.3,3.4,3.4s2.3,2.1,3.4,3.2c1.1,1,2.3,2,3.3,2.9c2.2,1.8,4.4,3.5,6.4,5
		c0.5,0.4,1,0.7,1.5,1.1s1,0.7,1.5,1c1,0.6,1.9,1.3,2.7,1.8c1.8,1,3.3,2,4.6,2.8c2.6,1.4,4.1,2.3,4.1,2.3s-1.6-0.5-4.5-1.4
		c-1.4-0.5-3.1-1.2-5.1-2c-1.9-0.9-4.1-1.8-6.4-3.2c-2.3-1.2-4.7-2.8-7.2-4.5c-1.2-0.9-2.5-1.8-3.7-2.7c-1.2-1-2.5-2-3.7-3.1
		c-2.5-2.2-4.9-4.5-7.2-7c-1.2-1.3-2.4-2.5-3.4-3.9l-1.7-2L298,63c-2.1-2.8-4.1-5.6-5.9-8.5s-3.5-5.8-5-8.7s-2.8-5.7-4-8.5
		c-1.2-2.7-2.2-5.4-3.1-7.8s-1.6-4.7-2.2-6.7s-1-3.8-1.4-5.3C275.8,14.8,275.5,13.1,275.5,13.1z"/>
</g>
<g>
	<path class="st0" d="M362.5,104.6c0,0,1.8-0.6,5.1-1.4c1.6-0.4,3.6-0.9,5.9-1.4c1.1-0.3,2.4-0.5,3.6-0.8c1.3-0.3,2.6-0.5,4-0.8
		c2.8-0.6,5.9-1.1,9.1-1.6c3.3-0.5,6.7-1.1,10.2-1.5c3.6-0.4,7.2-0.9,11-1.2c1.9-0.2,3.8-0.4,5.7-0.5c1.9-0.1,3.8-0.2,5.7-0.4
		c3.8-0.3,7.7-0.4,11.4-0.5c1.9-0.1,3.8-0.1,5.6-0.1c1.8,0,3.7,0,5.5,0c3.6,0,7.1,0.2,10.4,0.3c1.6,0.1,3.2,0.1,4.8,0.2
		c1.5,0.1,3,0.2,4.5,0.4c2.9,0.2,5.5,0.4,7.8,0.7c2.3,0.3,4.3,0.6,6,0.8c3.3,0.5,5.2,0.8,5.2,0.8s-1.9,0.1-5.3,0.2
		c-1.7,0-3.7,0.1-6,0.1c-2.3,0.1-4.9,0.2-7.8,0.2c-2.9,0.1-5.9,0.2-9.2,0.3c-3.3,0.1-6.7,0.2-10.3,0.4c-3.6,0.2-7.2,0.3-11,0.5
		c-3.7,0.2-7.5,0.3-11.3,0.6c-1.9,0.1-3.8,0.2-5.7,0.3c-1.9,0.1-3.8,0.3-5.6,0.4c-3.7,0.3-7.4,0.5-10.9,0.8c-3.6,0.3-7,0.5-10.2,0.8
		c-3.3,0.3-6.3,0.5-9.2,0.8C370.2,103.9,362.5,104.6,362.5,104.6z"/>
</g>
<g>
	<path class="st0" d="M434.5,142.6c0,0-0.3-1-0.3-2.9c0-0.9,0-2.1,0.1-3.4c0.1-1.3,0.4-2.7,0.7-4.3c0.2-0.8,0.5-1.6,0.7-2.4
		c0.2-0.9,0.6-1.7,1-2.5s0.7-1.8,1.2-2.6c0.5-0.9,1-1.7,1.5-2.6s1.2-1.7,1.8-2.5c0.6-0.8,1.2-1.7,2-2.5c0.7-0.8,1.5-1.6,2.2-2.3
		l1.1-1.2l1.2-1c1.7-1.4,3.3-2.8,5.1-3.9c1.8-1.1,3.5-2.3,5.3-3.1c1.8-0.9,3.5-1.8,5.2-2.4s3.3-1.2,4.8-1.6c0.8-0.2,1.5-0.5,2.2-0.6
		s1.4-0.3,2-0.4c1.3-0.3,2.4-0.5,3.3-0.6c1.8-0.3,2.8-0.4,2.8-0.4s-0.9,0.5-2.5,1.4c-0.8,0.4-1.8,0.9-2.9,1.5
		c-0.6,0.3-1.2,0.6-1.8,0.9c-0.6,0.3-1.3,0.7-1.9,1.1c-1.3,0.8-2.8,1.5-4.3,2.4c-0.8,0.4-1.5,0.9-2.3,1.4s-1.6,1-2.4,1.5
		c-1.7,0.9-3.1,2.1-4.8,3.3c-1.6,1.1-3.1,2.4-4.6,3.7l-1.1,0.9l-1,1c-0.7,0.7-1.4,1.4-2.1,2c-0.4,0.3-0.6,0.7-1,1.1
		c-0.3,0.4-0.6,0.7-0.9,1.1c-0.6,0.7-1.3,1.4-1.8,2.2c-0.5,0.7-1.1,1.5-1.6,2.2s-0.9,1.5-1.4,2.2c-0.2,0.4-0.4,0.7-0.7,1.1
		c-0.2,0.4-0.4,0.7-0.6,1.1c-0.4,0.7-0.7,1.4-1.1,2.1c-0.6,1.4-1.2,2.6-1.6,3.8s-0.7,2.2-1,3.1C434.8,141.4,434.6,142.1,434.5,142.6
		C434.6,142.3,434.5,142.6,434.5,142.6z"/>
</g>
<g>
	<path class="st0" d="M440.3,149.8c0,0,0.7,0,1.9,0c1.3,0,3.1-0.1,5.5,0s5.2,0.1,8.5,0.4c1.6,0.2,3.4,0.3,5.3,0.6
		c0.9,0.1,1.9,0.4,2.9,0.6l0.8,0.3l0.4,0.1l0.4,0.2l0.4,0.2l0.2,0.1l0.1,0.1h0.1c0.1,0,0,0,0.1,0.1c0.2,0.2,0.4,0.3,0.6,0.5l0.4,0.4
		l0.3,0.3c0.2,0.2,0.3,0.4,0.5,0.7c0.3,0.4,0.6,0.9,0.9,1.4c0.6,0.9,1.1,1.8,1.6,2.8c1,1.9,1.9,3.9,2.9,5.9s2,4,3.1,6
		c0.6,1,1.2,2,1.8,2.9c0.6,0.9,1.3,1.7,2,2.2c0.2,0.7,3,0,5.5-0.5c2.6-0.5,5.5-1.2,8.8-0.5c0.8,0.2,1.7,0.5,2.5,0.9
		c0.8,0.5,1.5,1,2.1,1.6c1.2,1.3,2,2.8,2.5,4.2c0.3,0.7,0.4,1.4,0.6,2.2l0.4,2c0.1,0.7,0.3,1.1,0.4,1.6c0.2,0.5,0.4,1,0.6,1.5
		c0.9,1.9,2.4,3.3,4.4,4.3s4.4,1.7,6.9,2.3s5.1,1.1,7.7,1.9c2.6,0.8,5.2,1.7,7.5,3.2c1.3,0.9,2.3,1.7,3.2,2.5c1,0.9,1.8,1.8,2.7,2.7
		c1.7,1.8,3.2,3.6,4.6,5.4c2.9,3.6,5.3,7,7.7,10.2c2.3,3.2,4.4,6.1,6.3,8.6c1.9,2.5,3.7,4.7,5.2,6.4c1.6,1.7,2.9,2.9,3.9,3.6
		c0.5,0.3,0.9,0.6,1.2,0.7c0.3,0.1,0.4,0.2,0.4,0.2s-0.2,0-0.5-0.1s-0.8-0.3-1.3-0.5c-1.1-0.6-2.7-1.6-4.5-3.1
		c-3.6-3-8.1-7.9-13.2-13.9c-2.6-3-5.3-6.2-8.3-9.6c-1.5-1.7-3-3.3-4.7-4.9c-0.8-0.8-1.7-1.6-2.5-2.3c-0.9-0.7-1.8-1.4-2.6-1.9
		c-3.9-2.3-8.8-3-14-4.2c-2.6-0.6-5.4-1.3-8.1-2.6c-1.4-0.7-2.7-1.5-3.9-2.7c-1.2-1.1-2.1-2.4-2.8-3.9c-0.3-0.7-0.6-1.4-0.8-2.2
		c-0.2-0.8-0.4-1.6-0.5-2.2l-0.3-1.8l-0.2-0.8l-0.2-0.8c-0.3-1-0.8-1.9-1.4-2.5s-1.3-1-2.1-1.2c-1.8-0.4-4.2-0.1-6.7,0.4
		c-1.3,0.2-2.5,0.5-4,0.7l-0.5,0.1h-0.6c-0.2,0-0.4,0-0.5,0h-0.2c-0.2,0-0.1,0-0.2,0h-0.1h-0.2c-1.2-0.2-2.1-0.7-2.8-1.2
		c-1.3-1.1-2.1-2.2-2.8-3.3c-0.7-1.1-1.3-2.2-1.9-3.3c-1.1-2.2-2-4.3-2.9-6.4c-0.9-2.1-1.7-4-2.5-6c-0.4-1-0.8-1.9-1.3-2.7
		c-0.2-0.4-0.4-0.8-0.7-1.2c-0.1-0.2-0.2-0.4-0.4-0.5l-0.2-0.3l-0.1-0.2c-0.9-1-2.8-1.5-4.5-2s-3.4-0.8-5-1.1c-3.2-0.6-6-1-8.3-1.3
		s-4.1-0.6-5.4-0.7C441,149.9,440.3,149.8,440.3,149.8z"/>
</g>
<g>
	<path class="st0" d="M152.2,237.6c2.9,0.1,5.8,0.2,8.6,0.3c2.9,0.1,5.7,0.2,8.6,0.4l17.2,1l8.6,0.6c1.4,0.1,2.9,0.2,4.3,0.3
		c1.4,0.1,2.9,0.2,4.3,0.3l8.6,0.5l8.6,0.6l2.1,0.1l-0.2,2c-0.1,1-0.2,2-0.3,3.1l-0.2,3.1c-0.1,1-0.1,2.1-0.1,3.1
		c-0.1,1,0,2.1-0.1,3.1c0,1,0,2.1,0,3.1s0,2.1,0.1,3.1c0,1,0,2.1,0.1,3.1s0.1,2.1,0.2,3.1c0.1,1,0.2,2.1,0.3,3.1s0.2,2.1,0.4,3.1
		c0.1,1,0.3,2.1,0.5,3.1s0.3,2.1,0.5,3.1l0.7,3.1c0.2,1,0.5,2,0.8,3.1c0.3,1,0.5,2,0.9,3l1,3l-1.5-2.8c-0.5-0.9-0.9-1.9-1.3-2.9
		c-0.4-1-0.9-2-1.2-3l-1-3.1c-0.3-1-0.6-2.1-0.9-3.1c-0.3-1-0.5-2.1-0.7-3.1c-0.2-1.1-0.5-2.1-0.6-3.2c-0.2-1.1-0.4-2.1-0.5-3.2
		c-0.2-1.1-0.3-2.1-0.4-3.2c-0.1-1.1-0.2-2.1-0.3-3.2s-0.2-2.1-0.2-3.2s-0.1-2.2-0.1-3.2c0-1.1-0.1-2.2,0-3.2c0-1.1,0-2.2,0-3.2
		c0-1.1,0.1-2.2,0.1-3.2c0.1-1.1,0.1-2.1,0.2-3.3l1.9,2.2l-8.6-0.5l-8.6-0.6c-2.9-0.2-5.7-0.5-8.6-0.8l-8.6-0.9
		c-2.9-0.3-5.7-0.7-8.6-1c-2.9-0.4-5.7-0.8-8.5-1.2s-5.7-0.9-8.5-1.3C157.9,238.6,155,238.1,152.2,237.6z"/>
</g>
<g>
	<path class="st0" d="M241.5,246.9c0,0,0.2,0.1,0.5,0.3s0.9,0.6,1.5,1.1s1.3,1.1,2,2c0.4,0.4,0.7,0.9,1.1,1.4c0.3,0.5,0.7,1.1,1,1.7
		c0.3,0.6,0.6,1.3,0.8,2c0.1,0.4,0.3,0.7,0.3,1.1c0.1,0.4,0.1,0.8,0.2,1.2c0,0.2,0.1,0.4,0.1,0.6v0.6c0,0.4,0,0.9,0.1,1.3
		c0,0.9-0.1,1.8-0.3,2.6c-0.3,1.8-0.9,3.5-1.7,5.2c-0.8,1.6-1.8,3.2-2.8,4.7c-2.1,3-4.6,5.5-6.8,7.8c-2.3,2.3-4.3,4.4-5.6,6.4
		c-0.6,1-1.1,2-1.4,2.9c-0.3,0.9-0.5,1.8-0.5,2.5s0,1.3,0,1.7c0,0.4,0.1,0.6,0.1,0.6s-0.1-0.2-0.3-0.6c-0.1-0.2-0.2-0.4-0.3-0.7
		c-0.1-0.3-0.2-0.6-0.3-1c-0.2-0.8-0.3-1.8-0.2-2.9s0.4-2.4,0.9-3.7c0.5-1.3,1.2-2.6,2.1-3.9c0.9-1.3,1.8-2.6,2.9-3.8
		c2.1-2.5,4.3-5.1,6.2-7.8c1-1.3,1.8-2.7,2.6-4.1c0.7-1.4,1.3-2.8,1.7-4.2c0.2-0.7,0.3-1.4,0.4-2.1c0-0.7,0.2-1.4,0.1-2
		c0-0.3,0-0.7,0-1s-0.1-0.6-0.1-1c-0.1-0.6-0.2-1.2-0.4-1.8c-0.3-1.2-0.8-2.2-1.2-3.1c-0.5-0.9-0.9-1.7-1.3-2.3
		C242.1,247.6,241.5,246.9,241.5,246.9z"/>
</g>
<g>
	<path class="st0" d="M276.9,247.9c0,0,6.1-0.2,15.2-0.2c2.3,0,4.7,0,7.4,0c2.6,0,5.4,0,8.2,0.1c2.8,0,5.8,0.1,8.8,0.1s6,0.1,9,0.1
		c3,0.1,6.1,0.1,9,0.2c1.5,0,3,0,4.4,0.1c1.5,0,2.9,0,4.3,0c2.8,0,5.6,0,8.2,0.1c2.6,0,5.1,0,7.3,0c2.3,0,4.3-0.1,6.2-0.1
		c1.8,0,3.5,0,4.8-0.2c2.6-0.2,4.2-0.2,4.2-0.2s-1.5,0.4-4.1,1c-1.3,0.3-2.9,0.6-4.7,0.9c-0.9,0.1-1.9,0.3-2.9,0.5s-2.1,0.3-3.3,0.4
		c-2.3,0.3-4.7,0.6-7.4,0.7c-2.6,0.2-5.4,0.4-8.2,0.5c-2.9,0.1-5.8,0.2-8.8,0.2s-6,0-9.1,0c-3-0.1-6.1-0.2-9.1-0.3s-5.9-0.3-8.8-0.5
		c-2.8-0.2-5.6-0.4-8.2-0.6c-2.6-0.2-5.1-0.5-7.3-0.7c-4.5-0.5-8.3-1-11-1.4c-1.3-0.2-2.4-0.4-3.1-0.5
		C277.3,248,276.9,247.9,276.9,247.9z"/>
</g>
<g>
	<path class="st0" d="M371.5,251.9c0,0,1,0.8,2.7,2.2s4.1,3.3,7.1,5.5c1.5,1.1,3.1,2.3,4.8,3.5c1.7,1.2,3.6,2.5,5.5,3.8
		c1.9,1.2,3.9,2.6,6,3.9c2,1.3,4.1,2.6,6.3,3.8c1.1,0.6,2.1,1.3,3.2,1.9s2.1,1.2,3.2,1.7c0.5,0.3,1.1,0.6,1.6,0.9s1,0.6,1.6,0.8
		c1.1,0.5,2.1,1,3.1,1.5c2,1,4.1,1.9,6,2.8c1,0.4,1.9,0.9,2.8,1.3s1.8,0.7,2.7,1.1c1.7,0.7,3.3,1.3,4.7,1.9c1.4,0.5,2.7,0.9,3.7,1.3
		c2,0.7,3.2,1.2,3.2,1.2s-1.2-0.1-3.4-0.4c-1.1-0.2-2.4-0.3-3.9-0.6c-1.5-0.3-3.2-0.7-5-1.2c-0.9-0.2-1.9-0.5-2.9-0.7
		c-1-0.3-2-0.7-3-1s-2.1-0.7-3.2-1.1c-1.1-0.3-2.1-0.9-3.2-1.3c-2.2-0.9-4.4-1.8-6.6-3c-1.1-0.6-2.2-1.1-3.3-1.7
		c-1.1-0.6-2.2-1.2-3.3-1.9c-1.1-0.7-2.2-1.3-3.2-1.9c-1-0.7-2.1-1.4-3.1-2.1c-0.5-0.3-1-0.7-1.5-1c-0.5-0.4-1-0.7-1.5-1.1
		c-1-0.7-1.9-1.4-2.9-2.1c-1.9-1.5-3.6-2.9-5.2-4.3c-0.8-0.7-1.6-1.4-2.3-2.1c-0.7-0.7-1.4-1.4-2.1-2c-1.4-1.3-2.5-2.6-3.6-3.7
		c-1-1.1-1.9-2.1-2.6-3C372.3,252.9,371.5,251.9,371.5,251.9z"/>
</g>
<g>
	<path class="st0" d="M444.9,292.2c0,0-0.4-0.5-1.2-1.5c-0.8-1-1.9-2.5-3.2-4.5c-1.3-2-2.9-4.4-4.5-7.3s-3.3-6.3-4.5-10.2
		c-0.6-2-1.1-4.1-1.2-6.5c0-1.2,0.1-2.4,0.5-3.7c0.2-0.6,0.5-1.2,0.8-1.9c0.2-0.3,0.4-0.6,0.6-0.9l0.3-0.4l0.4-0.4
		c0.3-0.2,0.5-0.5,0.8-0.7l0.9-0.6c0.3-0.2,0.7-0.3,1-0.5c0.4-0.1,0.6-0.3,1.1-0.4c0.6-0.2,1.2-0.3,1.8-0.5l0.9-0.3l1-0.2
		c0.7-0.1,1.4-0.3,2.1-0.4c0.7-0.1,1.4-0.1,2.1-0.2c0.7,0,1.5,0,2.2,0.1s1.5,0.2,2.2,0.4c2.9,0.6,5.5,2,7.8,3c1.2,0.5,2.3,0.8,3.4,1
		c0.6,0,1.1,0.1,1.7,0l0.9-0.1l0.9-0.2l0.4-0.1h0.2h0.1c-0.2,0.1,0,0,0,0h0.1l1-0.3c0.7-0.2,1.2-0.4,1.8-0.7
		c0.5-0.2,1.1-0.6,1.7-0.8c0.6-0.3,1.1-0.7,1.6-1c1.1-0.7,2.1-1.5,3.1-2.4c1.1-0.9,2.1-1.8,3.5-2.8c0.4-0.2,0.7-0.5,1.1-0.7
		s0.8-0.4,1.4-0.6l0.8-0.2c0.3,0,0.6,0,0.8-0.1c0.6-0.1,1.1,0.1,1.6,0.2c0.6,0.1,0.9,0.3,1.4,0.5l0.3,0.2h0.1l0,0l0.1,0.1l0.5,0.2
		c0.6,0.4,1.1,0.6,1.7,0.8c2.4,1,4.9,1.8,7.5,2.2c1.3,0.2,2.6,0.3,3.8,0.3c1.3,0,2.5-0.1,3.7-0.4c0.3-0.1,0.6-0.1,0.9-0.2l0.8-0.2
		l0.9-0.4c0.3-0.1,0.5-0.3,0.8-0.4c1.1-0.5,2.2-1.2,3.3-1.9c1.1-0.7,2.3-1.4,3.5-2.1c1.3-0.6,2.6-1.3,4.1-1.5
		c1.5-0.3,3.2-0.2,4.6,0.2c0.7,0.3,1.4,0.5,2,0.9c0.5,0.3,1.1,0.6,1.6,1l0.6,0.3l0.7,0.3c0.5,0.1,1,0.3,1.6,0.4
		c1.1,0.2,2.2,0.3,3.3,0.4c2.2,0.2,4.4,0.2,6.5,0.3c4.3,0,8.2,0,11.7,0.2s6.5,0.6,9,1.1s4.3,1.2,5.5,1.7c0.6,0.3,1,0.5,1.3,0.7
		s0.5,0.2,0.5,0.2s-0.2-0.1-0.5-0.2c-0.3-0.1-0.8-0.3-1.4-0.5c-1.2-0.4-3.1-0.8-5.6-1.1c-2.4-0.3-5.4-0.4-8.9-0.3
		c-3.4,0.1-7.3,0.3-11.6,0.5c-2.1,0.1-4.4,0.2-6.8,0.1c-1.2,0-2.4-0.1-3.7-0.3c-0.6-0.1-1.3-0.2-1.9-0.4l-1-0.3
		c-0.3-0.1-0.7-0.3-1.1-0.4c-0.5-0.3-1-0.6-1.5-0.8c-0.4-0.3-0.9-0.4-1.4-0.6c-0.9-0.2-1.9-0.2-2.9,0c-2,0.5-4.1,1.8-6.3,3.3
		c-1.1,0.7-2.3,1.5-3.6,2.2c-0.3,0.2-0.7,0.4-1,0.5l-0.9,0.4l-0.2,0.1h-0.1l-0.3,0.1l-0.6,0.2c-0.4,0.1-0.7,0.2-1.1,0.3
		c-3,0.8-6.1,0.8-9.1,0.3c-3-0.4-5.9-1.2-8.6-2.4c-0.7-0.3-1.5-0.7-2-1l-0.5-0.2l-0.1-0.1h-0.1l0,0l-0.1-0.1
		c-0.2-0.1-0.4-0.2-0.6-0.2s-0.3-0.1-0.5,0c-0.1,0-0.1,0-0.2,0s-0.2,0.1-0.3,0.1c-0.3,0.1-0.8,0.3-1.3,0.7c-1,0.7-2,1.6-3.1,2.5
		s-2.3,1.8-3.5,2.7c-1.3,0.8-2.6,1.6-4.1,2.2c-0.8,0.3-1.5,0.6-2.2,0.8l-1,0.3h-0.1h-0.2h-0.1l-0.3,0.1l-0.6,0.1l-1.2,0.2l-1.2,0.1
		c-0.8,0.1-1.6,0-2.5-0.1c-1.6-0.3-3.1-0.7-4.4-1.4c-2.6-1.2-4.7-2.4-7-3c-0.6-0.2-1.1-0.2-1.7-0.3s-1.2-0.1-1.8-0.1
		c-1.2,0-2.4,0.1-3.5,0.3l-0.9,0.1l-0.9,0.2c-0.6,0.2-1.2,0.3-1.8,0.5c-0.8,0.3-1.9,0.7-2.5,1.3c-1.4,1.2-1.9,3.2-2,5.1
		c-0.1,2,0.2,4,0.7,5.9c0.9,3.8,2.3,7.2,3.6,10.1c1.3,3,2.6,5.5,3.7,7.6C443.4,289.9,444.9,292.2,444.9,292.2z"/>
</g>
<g>
	<path class="st0" d="M565.7,242.9c0,0,0.5,0.1,1.4,0.1c0.5,0,1.1,0,1.7-0.1c0.7-0.1,1.5-0.1,2.3-0.3c0.9-0.1,1.8-0.3,2.9-0.5
		c0.5-0.1,1.1-0.2,1.6-0.3c0.6-0.1,1.1-0.3,1.7-0.4c2.4-0.6,4.9-1.6,7.7-2.6c1.4-0.6,2.8-1.2,4.3-1.9c1.4-0.7,2.9-1.4,4.5-2.2
		c1.5-0.8,3-1.7,4.6-2.6c1.5-1,3.1-1.9,4.7-2.9c1.6-1,3.1-2.1,4.8-3.1c0.8-0.5,1.6-1.1,2.4-1.7c0.8-0.6,1.6-1.1,2.4-1.7
		c0.8-0.6,1.6-1.1,2.4-1.7c0.8-0.6,1.6-1.2,2.4-1.8c1.6-1.2,3.2-2.4,4.8-3.7c3.2-2.4,6.4-4.9,9.5-7.3c3.1-2.5,6.2-4.8,9.2-7.2
		c3-2.3,5.9-4.5,8.8-6.6c2.8-2,5.6-3.9,8.2-5.5c2.6-1.6,5.2-2.9,7.5-3.8c1.2-0.5,2.3-0.8,3.3-1.1c1.1-0.2,2-0.4,2.9-0.6
		c0.9-0.1,1.7-0.1,2.4-0.2c0.7-0.1,1.3,0.1,1.8,0.1c0.9,0.1,1.5,0.1,1.5,0.1s-0.5,0-1.5,0.1c-0.5,0.1-1.1,0-1.7,0.2
		c-0.7,0.1-1.4,0.3-2.3,0.5c-0.8,0.3-1.7,0.6-2.7,0.9c-0.9,0.5-2,0.9-3.1,1.4c-2.1,1.2-4.5,2.6-6.9,4.4c-0.6,0.4-1.2,0.9-1.9,1.3
		c-0.6,0.5-1.2,1-1.9,1.5c-1.3,1-2.6,2-3.9,3.1c-2.7,2.2-5.5,4.5-8.4,6.9s-5.9,5-9,7.4c-3.1,2.5-6.3,5-9.5,7.5
		c-1.6,1.2-3.2,2.4-4.9,3.6c-0.8,0.6-1.6,1.2-2.4,1.8c-0.8,0.6-1.7,1.2-2.5,1.7c-3.3,2.4-6.7,4.4-9.9,6.4c-1.7,0.9-3.3,1.9-5,2.7
		s-3.3,1.6-4.9,2.3c-1.6,0.7-3.2,1.3-4.7,2c-1.6,0.5-3.1,1.1-4.5,1.6c-1.5,0.4-2.9,0.9-4.3,1.2c-1.4,0.3-2.7,0.6-3.9,0.8
		c-0.6,0.1-1.2,0.2-1.8,0.3s-1.1,0.1-1.7,0.2c-1.1,0.1-2.1,0.1-3,0.2c-1.8,0-3.2-0.1-4.1-0.3C566.2,243.1,565.7,242.9,565.7,242.9z"
		/>
</g>
<g>
	<path class="st0" d="M563.3,245.8c0,0,0.5,0.1,1.4,0.3s2.3,0.5,3.9,0.9c1.7,0.5,3.7,1.1,6,2s4.8,2,7.5,3.5c2.6,1.5,5.4,3.3,8,5.8
		c2.6,2.5,4.8,5.4,7,8.4s4.5,6.1,6.7,9.3c2.2,3.2,4.5,6.4,6.8,9.6s4.6,6.4,6.9,9.5c2.3,3.1,4.6,6.1,7,9c2.3,2.9,4.6,5.6,6.8,8.1
		c2.3,2.5,4.4,4.8,6.6,6.8c2.1,2,4.2,3.8,6.1,5.2c0.5,0.4,0.9,0.7,1.4,1s0.9,0.6,1.3,0.9c0.9,0.6,1.7,1,2.4,1.4s1.5,0.7,2.1,1
		c0.3,0.1,0.6,0.3,0.9,0.4c0.3,0.1,0.5,0.2,0.7,0.2c0.9,0.3,1.4,0.5,1.4,0.5s-0.5-0.1-1.4-0.2c-0.2,0-0.5-0.1-0.8-0.1
		c-0.3-0.1-0.6-0.2-0.9-0.2c-0.7-0.2-1.4-0.4-2.2-0.7c-0.8-0.3-1.7-0.7-2.7-1.2c-1-0.4-2-1-3-1.6c-1.1-0.6-2.1-1.4-3.3-2.1
		c-1.1-0.8-2.3-1.7-3.4-2.6c-1.2-0.9-2.4-2-3.6-3c-1.2-1.1-2.4-2.2-3.6-3.5c-2.5-2.4-4.9-5.1-7.4-7.9c-2.4-2.8-4.9-5.8-7.3-8.9
		c-2.4-3.1-4.8-6.3-7.1-9.5s-4.6-6.5-6.8-9.7s-4.3-6.4-6.4-9.5c-1-1.5-2.1-3-3.1-4.4c-1-1.5-2.1-2.7-3.2-3.9
		c-2.2-2.4-4.7-4.3-7.1-5.9c-2.4-1.6-4.7-3-6.9-4.1c-2.1-1.1-4-2-5.6-2.6c-1.6-0.7-2.9-1.2-3.7-1.5
		C563.8,245.9,563.3,245.8,563.3,245.8z"/>
</g>
<g>
	<path class="st0" d="M642.6,322c0,0-1.2-0.6-3-2c-0.9-0.7-2-1.6-3.2-2.7s-2.4-2.4-3.7-4c-0.6-0.8-1.3-1.6-1.9-2.5
		c-0.6-0.9-1.3-1.8-1.8-2.8c-0.3-0.5-0.6-1-0.9-1.5c-0.3-0.5-0.6-1.1-0.8-1.6c-0.3-0.5-0.6-1.1-0.8-1.6c-0.2-0.6-0.5-1.1-0.7-1.7
		s-0.5-1.2-0.7-1.8c-0.2-0.6-0.4-1.2-0.6-1.8c-0.2-0.6-0.4-1.2-0.6-1.9c-0.2-0.6-0.3-1.3-0.5-1.9s-0.3-1.3-0.5-2l-0.3-2l-0.3-2
		l-0.2-1.9c-0.1-1.3-0.3-2.6-0.4-3.8c-0.2-1.3-0.3-2.5-0.5-3.8c-0.2-1.2-0.4-2.5-0.6-3.7c-0.1-0.6-0.2-1.2-0.3-1.8
		c-0.1-0.6-0.2-1.2-0.4-1.8c-0.5-2.3-1.1-4.6-1.7-6.6c-0.3-1-0.7-2-1-3c-0.4-0.9-0.7-1.9-1.1-2.7c-0.2-0.4-0.4-0.8-0.6-1.2
		c-0.2-0.4-0.4-0.8-0.7-1.1c-0.4-0.8-0.9-1.4-1.3-2c-0.4-0.6-1-1.1-1.4-1.6c-0.5-0.5-0.9-0.8-1.4-1.2c-0.9-0.6-1.6-1.1-2.2-1.4
		c-0.6-0.3-0.8-0.4-0.8-0.4s0.3,0.1,0.9,0.2c0.6,0.1,1.5,0.4,2.6,0.9c0.5,0.3,1.1,0.6,1.7,1c0.3,0.2,0.6,0.5,0.9,0.7
		c0.3,0.2,0.6,0.5,0.9,0.8c0.6,0.6,1.2,1.2,1.8,1.9c0.6,0.7,1.1,1.5,1.7,2.4c0.6,0.8,1,1.8,1.6,2.7c0.5,1,0.9,2,1.4,3.1
		c0.9,2.1,1.7,4.4,2.3,6.8c0.2,0.6,0.3,1.2,0.5,1.8c0.1,0.6,0.3,1.2,0.4,1.9c0.3,1.2,0.5,2.5,0.8,3.8c0.2,1.3,0.4,2.6,0.6,3.9
		c0.2,1.3,0.3,2.6,0.5,3.9l0.2,2l0.2,1.9l0.2,1.8c0.1,0.6,0.2,1.2,0.4,1.8c0.1,0.6,0.2,1.2,0.4,1.8c0.1,0.6,0.3,1.2,0.5,1.8
		c0.2,0.6,0.3,1.2,0.5,1.7c0.2,0.6,0.4,1.1,0.6,1.7c0.2,0.6,0.4,1.1,0.6,1.6c0.2,0.5,0.4,1.1,0.7,1.6c0.2,0.5,0.4,1,0.7,1.6
		c0.2,0.5,0.5,1,0.7,1.5s0.5,1,0.7,1.4c0.3,0.5,0.5,0.9,0.8,1.4c0.5,0.9,1,1.7,1.5,2.6c2,3.2,4.1,5.8,5.5,7.5
		c0.8,0.8,1.4,1.5,1.8,1.9C642.4,321.7,642.6,322,642.6,322z"/>
</g>
<g>
	<path class="st0" d="M610.3,249.2c0,0,1.1-0.7,3-2.2c0.9-0.7,2-1.6,3.2-2.7c1.2-1.1,2.5-2.3,3.9-3.7s2.8-3,4.2-4.7
		c0.4-0.4,0.7-0.9,1.1-1.3c0.3-0.5,0.7-0.9,1-1.4c0.7-0.9,1.4-1.9,2.1-2.9c0.7-1,1.3-2.1,2-3.1c0.3-0.5,0.6-1.1,0.9-1.6
		c0.3-0.6,0.6-1.1,0.9-1.7c0.6-1.2,1.2-2.3,1.9-3.5s1.3-2.4,2-3.6c1.4-2.3,2.9-4.6,4.4-6.8c0.4-0.5,0.8-1.1,1.1-1.6
		c0.4-0.5,0.8-1.1,1.2-1.6c0.8-1,1.6-2.1,2.4-3c1.6-2,3.3-3.8,5-5.4c0.8-0.8,1.7-1.6,2.5-2.4c0.8-0.7,1.6-1.4,2.4-2.1
		c0.8-0.6,1.6-1.2,2.3-1.8c0.8-0.5,1.5-1,2.2-1.5c1.4-0.9,2.6-1.6,3.7-2.2c1-0.6,1.9-0.9,2.5-1.2c0.6-0.2,0.9-0.4,0.9-0.4
		s-0.3,0.2-0.8,0.6c-0.5,0.4-1.3,0.9-2.2,1.6c-0.9,0.7-2,1.7-3.2,2.7c-0.6,0.6-1.2,1.1-1.9,1.8c-0.6,0.6-1.3,1.3-2,2
		s-1.4,1.5-2.1,2.3c-0.7,0.8-1.4,1.6-2.2,2.5c-1.4,1.7-2.9,3.6-4.4,5.6s-2.9,4.1-4.4,6.2c-1.4,2.2-2.8,4.4-4.2,6.7
		c-0.7,1.1-1.3,2.3-2,3.4c-0.6,1.2-1.3,2.3-1.9,3.5c-1.3,2.4-2.8,4.6-4.4,6.7c-0.8,1-1.5,2-2.4,3c-0.4,0.5-0.8,0.9-1.2,1.4
		c-0.4,0.4-0.8,0.9-1.3,1.3c-1.6,1.7-3.3,3.1-4.9,4.4c-0.8,0.6-1.6,1.2-2.3,1.8c-0.8,0.5-1.5,1-2.2,1.5c-1.4,0.9-2.7,1.6-3.7,2.1
		c-1,0.6-1.9,0.9-2.5,1.2C610.6,249,610.3,249.2,610.3,249.2z"/>
</g>
<path id="SVGID_x5F_1_x5F_" class="st4" d="M-36.1,170.1c20.8-24.2,63.6-67,131.6-91.4c117-42,220.6,1.9,245.1,13.1"/>
<text transform="matrix(0.804 -0.5435 0.5288 0.8488 36.1239 108.0657)" class="st5 st6"> </text>
<text transform="matrix(0.8496 -0.4551 0.445 0.8955 38.2379 104.9897)" class="st7 st8">M</text>
<text transform="matrix(0.8954 -0.3397 0.3353 0.9421 88.6484 79.3863)" class="st7 st9">I</text>
<text transform="matrix(0.9244 -0.2376 0.2382 0.9712 105.3002 72.2499)" class="st7 st10">N</text>
<text transform="matrix(0.9488 -9.275232e-02 0.1002 0.995 149.8277 60.8492)" class="st7 st11">N</text>
<text transform="matrix(0.9549 3.745478e-02 -2.407189e-02 0.9997 195.5337 56.5866)" class="st7 st12">O</text>
<text class="st5 st13"> </text>
<g>
	<line class="st1" x1="272.7" y1="4.9" x2="278.4" y2="12.7"/>
	<line class="st1" x1="279.5" y1="6" x2="271.6" y2="11.6"/>
</g>
<g>
	<path class="st0" d="M342.9,95.1c0,0-0.3-0.2-0.7-0.6c-0.2-0.2-0.4-0.5-0.7-0.8c-0.3-0.3-0.6-0.6-0.9-1s-0.6-0.8-1-1.3
		c-0.3-0.5-0.7-0.9-1-1.4s-0.7-1-1-1.6c-0.3-0.5-0.6-1.1-0.9-1.7s-0.6-1.1-0.8-1.7c-0.3-0.6-0.5-1.1-0.7-1.7s-0.4-1.1-0.6-1.6
		s-0.3-1-0.4-1.5s-0.2-0.9-0.3-1.3c-0.1-0.4-0.1-0.7-0.2-1c-0.1-0.6-0.1-0.9-0.1-0.9s0.2,0.3,0.4,0.8c0.1,0.3,0.3,0.6,0.4,0.9
		c0.2,0.3,0.4,0.7,0.6,1.2c0.1,0.2,0.2,0.4,0.3,0.7c0.1,0.2,0.2,0.5,0.4,0.7c0.2,0.5,0.5,1,0.8,1.5s0.6,1.1,0.8,1.6
		c0.3,0.6,0.6,1.1,0.9,1.7c0.6,1.1,1.2,2.2,1.7,3.3c0.6,1.1,1.1,2,1.5,2.9c0.2,0.4,0.4,0.8,0.6,1.2c0.2,0.3,0.3,0.7,0.4,0.9
		c0.1,0.3,0.2,0.5,0.3,0.6C342.9,95.1,342.9,95.1,342.9,95.1z"/>
</g>
<g>
	<path class="st0" d="M342.9,95.2c0,0-0.3,0.1-0.9,0.2c-0.3,0.1-0.6,0.1-1,0.2c-0.4,0-0.8,0.1-1.3,0.1s-1,0.1-1.6,0.1s-1.1,0-1.8,0
		c-0.6,0-1.2,0-1.9-0.1c-0.6,0-1.3-0.1-1.9-0.1c-0.6-0.1-1.3-0.1-1.9-0.2s-1.2-0.2-1.8-0.3c-0.6-0.1-1.2-0.3-1.7-0.4
		c-0.5-0.2-1-0.3-1.5-0.5s-0.9-0.3-1.2-0.5c-0.4-0.1-0.7-0.3-0.9-0.4c-0.5-0.3-0.8-0.4-0.8-0.4s0.3,0,0.9,0.1c0.3,0,0.6,0.1,1,0.1
		s0.8,0.1,1.3,0.2c0.2,0,0.5,0.1,0.7,0.1c0.3,0,0.5,0.1,0.8,0.1c0.5,0.1,1.1,0.1,1.7,0.2s1.2,0.1,1.8,0.2c0.6,0.1,1.3,0.1,1.9,0.2
		c1.3,0.1,2.5,0.3,3.7,0.4s2.3,0.2,3.2,0.4c0.5,0.1,0.9,0.1,1.3,0.2c0.4,0,0.7,0.1,1,0.1s0.5,0.1,0.6,0.1
		C342.9,95.2,342.9,95.2,342.9,95.2z"/>
</g>
<g>
	<path class="st0" d="M255.5,71.1c0,0-0.2-0.3-0.5-0.8c-0.1-0.3-0.3-0.6-0.5-0.9c-0.2-0.4-0.4-0.8-0.6-1.2c-0.2-0.4-0.4-0.9-0.6-1.4
		c-0.2-0.5-0.4-1.1-0.6-1.6c-0.2-0.6-0.4-1.2-0.6-1.8c-0.2-0.6-0.4-1.2-0.5-1.9c-0.1-0.6-0.3-1.2-0.4-1.9c-0.1-0.6-0.2-1.2-0.3-1.8
		s-0.2-1.2-0.2-1.7c0-0.6-0.1-1.1-0.1-1.6s0-0.9,0-1.3c0-0.4,0.1-0.7,0.1-1c0.1-0.6,0.1-0.9,0.1-0.9s0.1,0.3,0.2,0.9
		c0.1,0.3,0.1,0.6,0.2,1c0.1,0.4,0.2,0.8,0.3,1.3c0,0.2,0.1,0.5,0.2,0.7c0.1,0.2,0.1,0.5,0.2,0.8c0.1,0.5,0.3,1.1,0.4,1.7
		c0.1,0.6,0.3,1.2,0.4,1.8c0.2,0.6,0.3,1.2,0.5,1.8c0.3,1.2,0.6,2.5,0.9,3.6c0.3,1.2,0.6,2.2,0.8,3.2c0.1,0.5,0.2,0.9,0.3,1.3
		s0.2,0.7,0.2,1c0.1,0.3,0.1,0.5,0.1,0.6C255.5,71,255.5,71.1,255.5,71.1z"/>
</g>
<g>
	<path class="st0" d="M255.5,71.2c0,0,0.3-0.2,0.7-0.6c0.2-0.2,0.5-0.4,0.8-0.7c0.3-0.3,0.6-0.6,1-0.9c0.3-0.4,0.7-0.7,1.1-1.2
		c0.4-0.4,0.8-0.9,1.1-1.3c0.4-0.5,0.8-1,1.2-1.5c0.4-0.5,0.7-1,1.1-1.6c0.3-0.5,0.7-1.1,1-1.6s0.6-1.1,0.9-1.6s0.5-1.1,0.7-1.6
		s0.4-1,0.6-1.4c0.2-0.5,0.3-0.9,0.4-1.2c0.1-0.4,0.2-0.7,0.3-1c0.1-0.6,0.2-0.9,0.2-0.9s-0.2,0.3-0.5,0.7c-0.1,0.2-0.3,0.5-0.5,0.9
		c-0.2,0.3-0.5,0.7-0.7,1.1c-0.1,0.2-0.3,0.4-0.4,0.6c-0.1,0.2-0.3,0.4-0.4,0.7c-0.3,0.5-0.6,0.9-0.9,1.4s-0.7,1-1,1.5s-0.7,1-1,1.6
		c-0.7,1.1-1.4,2.1-2.1,3.1s-1.3,1.9-1.8,2.7c-0.3,0.4-0.5,0.8-0.7,1.1c-0.2,0.3-0.4,0.6-0.5,0.9c-0.1,0.2-0.3,0.4-0.3,0.6
		C255.6,71.1,255.5,71.2,255.5,71.2z"/>
</g>
<g>
	<path class="st0" d="M362.5,104.6c0,0,0.2-0.3,0.5-0.8c0.2-0.2,0.4-0.5,0.6-0.8c0.3-0.3,0.5-0.7,0.9-1c0.3-0.4,0.7-0.8,1.1-1.2
		c0.4-0.4,0.8-0.8,1.3-1.2c0.4-0.4,0.9-0.8,1.4-1.2c0.5-0.4,1-0.8,1.5-1.2c0.5-0.4,1-0.8,1.6-1.1c0.5-0.4,1-0.7,1.6-1
		c0.5-0.3,1-0.6,1.5-0.9c0.5-0.2,1-0.5,1.4-0.7s0.9-0.4,1.2-0.5c0.4-0.1,0.7-0.2,1-0.3c0.5-0.2,0.9-0.2,0.9-0.2s-0.3,0.2-0.7,0.5
		c-0.2,0.2-0.5,0.4-0.8,0.6s-0.7,0.5-1.1,0.8c-0.2,0.1-0.4,0.3-0.6,0.4c-0.2,0.2-0.4,0.3-0.6,0.5c-0.4,0.3-0.9,0.7-1.4,1
		s-1,0.7-1.5,1.1s-1,0.8-1.5,1.2c-1,0.8-2,1.6-3,2.3c-0.9,0.7-1.8,1.4-2.6,2c-0.4,0.3-0.7,0.5-1.1,0.8c-0.3,0.2-0.6,0.4-0.8,0.6
		c-0.2,0.2-0.4,0.3-0.5,0.4C362.6,104.5,362.5,104.6,362.5,104.6z"/>
</g>
<g>
	<path class="st0" d="M362.4,104.6c0,0,0.3,0.2,0.8,0.4c0.3,0.1,0.6,0.3,1,0.4c0.4,0.2,0.8,0.3,1.3,0.5s1,0.4,1.5,0.5
		c0.5,0.2,1.1,0.3,1.7,0.5s1.2,0.3,1.8,0.4c0.6,0.1,1.3,0.3,1.9,0.4s1.3,0.2,1.9,0.3c0.6,0.1,1.2,0.1,1.8,0.1c0.6,0,1.2,0.1,1.7,0
		c0.6,0,1.1,0,1.6-0.1c0.5,0,0.9-0.1,1.3-0.1s0.7-0.1,1-0.2c0.6-0.1,0.9-0.2,0.9-0.2s-0.3-0.1-0.9-0.1c-0.3,0-0.6-0.1-1-0.1
		c-0.4-0.1-0.8-0.1-1.3-0.2c-0.2,0-0.5-0.1-0.7-0.1c-0.3,0-0.5-0.1-0.8-0.1c-0.5-0.1-1.1-0.2-1.7-0.3c-0.6-0.1-1.2-0.2-1.8-0.3
		c-0.6-0.1-1.2-0.2-1.9-0.3c-1.3-0.2-2.5-0.4-3.7-0.6s-2.3-0.4-3.2-0.5c-0.5-0.1-0.9-0.1-1.3-0.2s-0.7-0.1-1-0.1s-0.5-0.1-0.6-0.1
		C362.4,104.6,362.4,104.6,362.4,104.6z"/>
</g>
<g>
	<path class="st0" d="M434.3,142.8c0,0-0.2-0.3-0.4-0.8c-0.1-0.3-0.3-0.6-0.4-0.9c-0.2-0.4-0.3-0.8-0.5-1.2c-0.2-0.5-0.4-1-0.6-1.5
		s-0.4-1.1-0.5-1.7c-0.2-0.6-0.3-1.2-0.5-1.8c-0.1-0.6-0.3-1.2-0.4-1.9c-0.1-0.6-0.2-1.3-0.3-1.9c-0.1-0.6-0.2-1.2-0.2-1.8
		s-0.1-1.2-0.1-1.7c0-0.6,0-1.1,0-1.6s0.1-0.9,0.1-1.3s0.1-0.7,0.1-1c0.1-0.6,0.2-0.9,0.2-0.9s0.1,0.3,0.2,0.9c0,0.3,0.1,0.6,0.2,1
		s0.1,0.8,0.2,1.3c0,0.2,0.1,0.5,0.1,0.7c0,0.3,0.1,0.5,0.1,0.8c0.1,0.5,0.2,1.1,0.3,1.7c0.1,0.6,0.2,1.2,0.3,1.8
		c0.1,0.6,0.2,1.2,0.3,1.9c0.2,1.2,0.5,2.5,0.7,3.7s0.4,2.3,0.6,3.2c0.1,0.5,0.2,0.9,0.2,1.3c0.1,0.4,0.1,0.7,0.2,1
		C434.2,142.4,434.3,142.6,434.3,142.8C434.3,142.7,434.3,142.8,434.3,142.8z"/>
</g>
<g>
	<path class="st0" d="M434.7,142.2c0,0,0.3-0.2,0.7-0.5c0.2-0.2,0.5-0.4,0.8-0.6c0.3-0.3,0.7-0.5,1-0.9c0.4-0.3,0.8-0.7,1.2-1.1
		c0.4-0.4,0.8-0.8,1.2-1.3c0.4-0.4,0.8-0.9,1.2-1.4c0.4-0.5,0.8-1,1.2-1.5c0.4-0.5,0.8-1,1.1-1.6c0.3-0.5,0.7-1,1-1.6
		c0.3-0.5,0.6-1,0.8-1.5c0.2-0.5,0.5-1,0.7-1.4s0.4-0.9,0.5-1.2c0.1-0.4,0.2-0.7,0.3-1c0.2-0.5,0.2-0.9,0.2-0.9s-0.2,0.3-0.5,0.7
		c-0.2,0.2-0.4,0.5-0.6,0.8s-0.5,0.7-0.8,1.1c-0.1,0.2-0.3,0.4-0.4,0.6c-0.2,0.2-0.3,0.4-0.5,0.6c-0.3,0.4-0.7,0.9-1,1.4
		s-0.7,1-1.1,1.5s-0.8,1-1.1,1.5c-0.8,1-1.5,2-2.3,3c-0.7,1-1.4,1.8-2,2.6c-0.3,0.4-0.5,0.7-0.8,1.1c-0.2,0.3-0.4,0.6-0.6,0.8
		s-0.3,0.4-0.4,0.5C434.7,142.2,434.7,142.2,434.7,142.2z"/>
</g>
<g>
	<line class="st2" x1="474" y1="97.2" x2="483.6" y2="98.4"/>
	<line class="st2" x1="479.4" y1="93" x2="478.1" y2="102.6"/>
</g>
</svg>
